<svg width="22" height="22" viewBox="0 0 22 22" fill="none" xmlns="http://www.w3.org/2000/svg">
<path d="M12.886 3.17773C11.8346 3.17773 10.8263 3.5954 10.0828 4.33885C9.33937 5.08229 8.92171 6.09063 8.92171 7.14202V9.34916H6.80028C6.69399 9.34916 6.60742 9.43488 6.60742 9.54202V12.4563C6.60742 12.5626 6.69314 12.6492 6.80028 12.6492H8.92171V18.6277C8.92171 18.734 9.00742 18.8206 9.11456 18.8206H12.0289C12.1351 18.8206 12.2217 18.7349 12.2217 18.6277V12.6492H14.362C14.4503 12.6492 14.5274 12.5892 14.5489 12.5034L15.2774 9.58916C15.2846 9.56072 15.2852 9.53103 15.2791 9.50233C15.2731 9.47363 15.2606 9.44668 15.2426 9.42354C15.2246 9.4004 15.2015 9.38167 15.1752 9.36878C15.1488 9.3559 15.1199 9.34918 15.0906 9.34916H12.2217V7.14202C12.2217 7.05478 12.2389 6.9684 12.2723 6.88781C12.3057 6.80721 12.3546 6.73398 12.4163 6.6723C12.478 6.61061 12.5512 6.56168 12.6318 6.5283C12.7124 6.49492 12.7988 6.47773 12.886 6.47773H15.1146C15.2208 6.47773 15.3074 6.39202 15.3074 6.28488V3.37059C15.3074 3.26431 15.2217 3.17773 15.1146 3.17773H12.886Z" fill="#34FF67"/>
</svg>
