<svg width="22" height="22" viewBox="0 0 22 22" fill="none" xmlns="http://www.w3.org/2000/svg">
<path d="M19.2664 6.05111C19.3161 5.98254 19.2424 5.89254 19.1635 5.9234C18.5984 6.14249 18.0081 6.29021 17.4064 6.36311C18.0749 5.96382 18.593 5.35526 18.8807 4.63169C18.9098 4.55797 18.8292 4.49197 18.7607 4.53054C18.1375 4.87426 17.4664 5.12197 16.7678 5.26511C16.7534 5.26801 16.7386 5.26716 16.7246 5.26266C16.7106 5.25816 16.6981 5.25015 16.6881 5.2394C16.1624 4.68472 15.4702 4.31653 14.7164 4.19061C13.9627 4.0647 13.1884 4.18792 12.5109 4.54162C11.8335 4.89531 11.2898 5.4602 10.9623 6.15067C10.6347 6.84114 10.5412 7.61956 10.6958 8.36797C10.6986 8.381 10.6983 8.39449 10.6951 8.40741C10.6918 8.42032 10.6856 8.43232 10.677 8.4425C10.6684 8.45267 10.6576 8.46074 10.6454 8.46609C10.6332 8.47145 10.62 8.47395 10.6067 8.4734C9.2502 8.38915 7.92524 8.02866 6.71308 7.41403C5.50092 6.7994 4.42711 5.94359 3.55753 4.89911C3.54885 4.88825 3.5376 4.87971 3.5248 4.87426C3.51201 4.86881 3.49806 4.86663 3.48421 4.8679C3.47036 4.86918 3.45704 4.87387 3.44545 4.88156C3.43386 4.88926 3.42437 4.8997 3.41781 4.91197C3.14718 5.42536 3.00595 5.99705 3.00639 6.5774C3.00529 7.15544 3.14714 7.72479 3.41932 8.23474C3.69149 8.7447 4.08554 9.17944 4.56638 9.50026C4.05696 9.48641 3.55684 9.36058 3.10153 9.13169C3.04324 9.10169 2.97296 9.14369 2.97553 9.20883C3.00974 9.9812 3.28995 10.7224 3.77524 11.3243C4.29087 11.9487 5.00634 12.376 5.80067 12.5337C5.49471 12.626 5.17735 12.675 4.85781 12.6794C4.68405 12.6771 4.51059 12.6642 4.33838 12.6408C4.2741 12.6323 4.22181 12.6923 4.2441 12.7523C4.48961 13.4168 4.92979 13.992 5.50718 14.4025C6.08456 14.8131 6.77233 15.04 7.48067 15.0537C6.11294 16.1294 4.39552 16.661 2.65924 16.546C2.56839 16.54 2.52639 16.6608 2.60439 16.7071C4.13971 17.6182 5.89251 18.0979 7.67781 18.0957C8.99748 18.1094 10.3066 17.86 11.5289 17.3621C12.7511 16.8642 13.8618 16.1278 14.7963 15.1958C15.7307 14.2639 16.4701 13.1551 16.9712 11.9342C17.4723 10.7133 17.7252 9.40481 17.715 8.08512V7.67369C17.715 7.66038 17.7181 7.64726 17.724 7.63535C17.73 7.62345 17.7386 7.6131 17.7492 7.60511C18.3306 7.1668 18.8422 6.64284 19.2664 6.05111Z" fill="#34FF67"/>
</svg>
