<svg width="20" height="20" viewBox="0 0 20 20" fill="none" xmlns="http://www.w3.org/2000/svg">
<path d="M4.64202 6.57296C4.40389 5.00171 5.51264 3.58796 7.20639 3.06921C7.50712 2.97717 7.83164 3.00332 8.11375 3.14234C8.39586 3.28137 8.6143 3.52278 8.72452 3.81734L9.26764 5.26734C9.35496 5.50058 9.37062 5.75459 9.3126 5.99679C9.25459 6.239 9.12554 6.45835 8.94202 6.62671L7.32639 8.10859C7.24656 8.18168 7.18708 8.27425 7.15377 8.37723C7.12047 8.48022 7.11448 8.59009 7.13639 8.69609L7.15077 8.76109L7.19077 8.92421C7.22639 9.06171 7.28014 9.25546 7.35577 9.48671C7.50577 9.94609 7.74514 10.5636 8.10139 11.1805C8.45764 11.7973 8.87264 12.3136 9.19514 12.673C9.36325 12.8599 9.5388 13.0401 9.72139 13.213L9.77139 13.2592C9.8522 13.3308 9.95017 13.3802 10.0558 13.4027C10.1613 13.4251 10.2709 13.4198 10.3739 13.3873L12.4651 12.7292C12.7027 12.6545 12.9572 12.6525 13.196 12.7235C13.4347 12.7944 13.6469 12.935 13.8051 13.1273L14.7945 14.3286C15.207 14.8286 15.1583 15.5636 14.6839 16.0055C13.3876 17.2136 11.6051 17.4617 10.3651 16.4642C8.84559 15.238 7.56432 13.7429 6.58514 12.0536C5.59878 10.3648 4.93956 8.50591 4.64202 6.57296ZM8.44577 8.77796L9.78702 7.54796C10.1541 7.21123 10.4122 6.77253 10.5282 6.28813C10.6442 5.80372 10.6129 5.2957 10.4383 4.82921L9.89452 3.37921C9.67269 2.78679 9.23327 2.30127 8.66585 2.02163C8.09843 1.74198 7.44571 1.68926 6.84077 1.87421C4.73764 2.51859 3.04889 4.40421 3.40639 6.75984C3.72731 8.84852 4.43911 10.858 5.50452 12.683C6.56064 14.5047 7.94255 16.1169 9.58139 17.4392C11.4408 18.933 13.9245 18.4236 15.5364 16.9205C15.9979 16.4907 16.2779 15.9011 16.3194 15.2719C16.3609 14.6427 16.1606 14.0214 15.7595 13.5348L14.7701 12.3336C14.4535 11.9488 14.0292 11.6675 13.5516 11.5256C13.0739 11.3837 12.5648 11.3878 12.0895 11.5373L10.3539 12.0836C10.2762 12.0037 10.2001 11.9222 10.1258 11.8392C9.76894 11.4447 9.45335 11.0147 9.18389 10.5561C8.92128 10.0933 8.70662 9.60497 8.54327 9.09859C8.50857 8.9926 8.47607 8.88591 8.44577 8.77859" fill="#34FF67"/>
</svg>
