<svg width="48" height="48" viewBox="0 0 48 48" fill="none" xmlns="http://www.w3.org/2000/svg">
<path fill-rule="evenodd" clip-rule="evenodd" d="M2.5 12C2.5 8.96244 4.96244 6.5 8 6.5H40C43.0376 6.5 45.5 8.96244 45.5 12V32C45.5 35.0376 43.0376 37.5 40 37.5H28.427L29.927 40.5H34C34.8284 40.5 35.5 41.1716 35.5 42C35.5 42.8284 34.8284 43.5 34 43.5H14C13.1716 43.5 12.5 42.8284 12.5 42C12.5 41.1716 13.1716 40.5 14 40.5H18.0729L19.5729 37.5H8C4.96244 37.5 2.5 35.0376 2.5 32V12ZM40 34.5H8C6.61928 34.5 5.5 33.3808 5.5 32V12C5.5 10.6193 6.61928 9.5 8 9.5H40C41.3808 9.5 42.5 10.6193 42.5 12V32C42.5 33.3808 41.3808 34.5 40 34.5Z" fill="#0F2F2C"/>
</svg>
