<svg width="22" height="23" viewBox="0 0 22 23" fill="none" xmlns="http://www.w3.org/2000/svg">
<path fill-rule="evenodd" clip-rule="evenodd" d="M14.4372 3.6912V21.1079C14.4372 21.4874 14.1292 21.7954 13.7497 21.7954H2.74967C2.32434 21.7954 1.91642 21.6267 1.61576 21.3251C1.31417 21.0245 1.14551 20.6165 1.14551 20.1912V3.6912C1.14551 3.26587 1.31417 2.85795 1.61576 2.55729C1.91642 2.2557 2.32434 2.08704 2.74967 2.08704H12.833C13.2583 2.08704 13.6663 2.2557 13.9669 2.55729C14.2685 2.85795 14.4372 3.26587 14.4372 3.6912ZM13.0622 3.6912C13.0622 3.6307 13.0383 3.57204 12.9953 3.52895C12.9522 3.48587 12.8935 3.46204 12.833 3.46204H2.74967C2.68917 3.46204 2.63051 3.48587 2.58742 3.52895C2.54434 3.57204 2.52051 3.6307 2.52051 3.6912V20.1912C2.52051 20.2517 2.54434 20.3104 2.58742 20.3535C2.63051 20.3965 2.68917 20.4204 2.74967 20.4204H13.0622V3.6912Z" fill="#0F2F2C"/>
<path fill-rule="evenodd" clip-rule="evenodd" d="M10.7708 15.1495V21.1078C10.7708 21.4873 10.4628 21.7953 10.0833 21.7953H5.5C5.1205 21.7953 4.8125 21.4873 4.8125 21.1078V15.1495C4.8125 14.8452 4.9335 14.5546 5.148 14.3392C5.36342 14.1247 5.65492 14.0037 5.95833 14.0037H9.625C9.92842 14.0037 10.2199 14.1247 10.4353 14.3392C10.6498 14.5546 10.7708 14.8452 10.7708 15.1495ZM6.1875 15.3787V20.4203H9.39583V15.3787H6.1875Z" fill="#0F2F2C"/>
<path fill-rule="evenodd" clip-rule="evenodd" d="M20.8542 9.1912V20.1912C20.8542 21.0776 20.1355 21.7954 19.25 21.7954H13.75C13.3705 21.7954 13.0625 21.4874 13.0625 21.1079V8.27454C13.0625 7.89504 13.3705 7.58704 13.75 7.58704H19.25C20.1355 7.58704 20.8542 8.30479 20.8542 9.1912ZM19.4792 9.1912C19.4792 9.0647 19.3765 8.96204 19.25 8.96204H14.4375V20.4204H19.25C19.3765 20.4204 19.4792 20.3177 19.4792 20.1912V9.1912Z" fill="#0F2F2C"/>
<path fill-rule="evenodd" clip-rule="evenodd" d="M4.35352 5.06616H5.72852V6.44116H4.35352V5.06616Z" fill="#0F2F2C"/>
<path fill-rule="evenodd" clip-rule="evenodd" d="M4.35352 8.27454H5.72852V9.64954H4.35352V8.27454Z" fill="#0F2F2C"/>
<path fill-rule="evenodd" clip-rule="evenodd" d="M4.35352 11.4829H5.72852V12.8579H4.35352V11.4829Z" fill="#0F2F2C"/>
<path fill-rule="evenodd" clip-rule="evenodd" d="M7.10352 5.06616H8.47852V6.44116H7.10352V5.06616Z" fill="#0F2F2C"/>
<path fill-rule="evenodd" clip-rule="evenodd" d="M7.10352 8.27454H8.47852V9.64954H7.10352V8.27454Z" fill="#0F2F2C"/>
<path fill-rule="evenodd" clip-rule="evenodd" d="M7.10352 11.4829H8.47852V12.8579H7.10352V11.4829Z" fill="#0F2F2C"/>
<path fill-rule="evenodd" clip-rule="evenodd" d="M9.85352 5.06616H11.2285V6.44116H9.85352V5.06616Z" fill="#0F2F2C"/>
<path fill-rule="evenodd" clip-rule="evenodd" d="M16.2705 10.7954H17.6455V12.1704H16.2705V10.7954Z" fill="#0F2F2C"/>
<path fill-rule="evenodd" clip-rule="evenodd" d="M16.2705 14.0037H17.6455V15.3787H16.2705V14.0037Z" fill="#0F2F2C"/>
<path fill-rule="evenodd" clip-rule="evenodd" d="M16.2705 17.212H17.6455V18.587H16.2705V17.212Z" fill="#0F2F2C"/>
<path fill-rule="evenodd" clip-rule="evenodd" d="M9.85352 8.27454H11.2285V9.64954H9.85352V8.27454Z" fill="#0F2F2C"/>
<path fill-rule="evenodd" clip-rule="evenodd" d="M9.85352 11.4829H11.2285V12.8579H9.85352V11.4829Z" fill="#0F2F2C"/>
</svg>
