<svg width="22" height="22" viewBox="0 0 22 22" fill="none" xmlns="http://www.w3.org/2000/svg">
<g clip-path="url(#clip0_2218_3488)">
<path d="M21.9957 5.42585C21.97 5.18922 21.823 4.9798 21.6032 4.87723L11.2907 0.0647295C11.1064 -0.021251 10.8935 -0.021251 10.7092 0.0647295L0.39673 4.87723C0.176988 4.9798 0.0299492 5.18918 0.00421094 5.42585C0.00365234 5.4308 0 5.49662 0 5.50023V17.1877C0 17.4688 0.171145 17.7217 0.43218 17.826L10.7447 21.951C10.8266 21.9838 10.9133 22.0002 11 22.0002C11.0867 22.0002 11.1734 21.9839 11.2553 21.951L21.5678 17.826C21.8289 17.7217 22 17.4688 22 17.1877V5.50023C22 5.49662 21.9963 5.43075 21.9957 5.42585ZM11 1.44639L19.5828 5.45168L16.2779 6.77365L7.53358 3.06408L11 1.44639ZM5.85707 3.84645L14.4657 7.4985L11 8.88475L2.41725 5.45168L5.85707 3.84645ZM1.375 6.51567L10.3125 10.0907V20.2973L1.375 16.7223V6.51567ZM11.6875 20.2973V10.0907L20.625 6.51567V16.7223L11.6875 20.2973Z" fill="#0F2F2C"/>
</g>
<defs>
<clipPath id="clip0_2218_3488">
<rect width="22" height="22" fill="white"/>
</clipPath>
</defs>
</svg>
