<svg width="21" height="22" viewBox="0 0 21 22" fill="none" xmlns="http://www.w3.org/2000/svg">
<path d="M12.986 7.91409C12.329 7.91184 11.6781 8.03914 11.0704 8.28873C10.4627 8.53831 9.91013 8.90528 9.4444 9.36862C8.97866 9.83196 8.60887 10.3826 8.35616 10.989C8.10345 11.5954 7.9728 12.2457 7.97168 12.9027V17.9427C7.97168 18.1473 8.05296 18.3435 8.19763 18.4881C8.3423 18.6328 8.53851 18.7141 8.74311 18.7141H10.5431C10.7477 18.7141 10.9439 18.6328 11.0886 18.4881C11.2333 18.3435 11.3145 18.1473 11.3145 17.9427V12.9027C11.3144 12.669 11.3634 12.4379 11.4586 12.2245C11.5537 12.0111 11.6927 11.8201 11.8666 11.664C12.0405 11.508 12.2453 11.3903 12.4677 11.3186C12.6901 11.247 12.9251 11.2231 13.1574 11.2484C13.574 11.3008 13.9568 11.5044 14.2333 11.8204C14.5098 12.1363 14.6607 12.5428 14.6574 12.9627V17.9427C14.6574 18.1473 14.7387 18.3435 14.8833 18.4881C15.028 18.6328 15.2242 18.7141 15.4288 18.7141H17.2288C17.4334 18.7141 17.6296 18.6328 17.7743 18.4881C17.919 18.3435 18.0003 18.1473 18.0003 17.9427V12.9027C17.9991 12.2457 17.8685 11.5954 17.6158 10.989C17.3631 10.3826 16.9933 9.83196 16.5275 9.36862C16.0618 8.90528 15.5093 8.53831 14.9016 8.28873C14.2939 8.03914 13.6429 7.91184 12.986 7.91409Z" fill="#34FF67"/>
<path d="M5.657 8.68555H3.34272C2.91667 8.68555 2.57129 9.03093 2.57129 9.45698V17.9427C2.57129 18.3687 2.91667 18.7141 3.34272 18.7141H5.657C6.08305 18.7141 6.42843 18.3687 6.42843 17.9427V9.45698C6.42843 9.03093 6.08305 8.68555 5.657 8.68555Z" fill="#34FF67"/>
<path d="M4.49986 7.1423C5.56498 7.1423 6.42843 6.27885 6.42843 5.21373C6.42843 4.14861 5.56498 3.28516 4.49986 3.28516C3.43474 3.28516 2.57129 4.14861 2.57129 5.21373C2.57129 6.27885 3.43474 7.1423 4.49986 7.1423Z" fill="#34FF67"/>
</svg>
