<svg width="24" height="24" viewBox="0 0 24 24" fill="none" xmlns="http://www.w3.org/2000/svg">
<path d="M8 10.75H4C3.27088 10.7493 2.57184 10.4593 2.05628 9.94372C1.54071 9.42816 1.25074 8.72912 1.25 8V4C1.25074 3.27088 1.54071 2.57184 2.05628 2.05628C2.57184 1.54071 3.27088 1.25074 4 1.25H8C8.72912 1.25074 9.42816 1.54071 9.94372 2.05628C10.4593 2.57184 10.7493 3.27088 10.75 4V8C10.7493 8.72912 10.4593 9.42816 9.94372 9.94372C9.42816 10.4593 8.72912 10.7493 8 10.75ZM4 2.75C3.66857 2.75031 3.35081 2.8821 3.11646 3.11646C2.8821 3.35081 2.75031 3.66857 2.75 4V8C2.75031 8.33143 2.8821 8.64919 3.11646 8.88354C3.35081 9.1179 3.66857 9.24969 4 9.25H8C8.33143 9.24969 8.64919 9.1179 8.88354 8.88354C9.1179 8.64919 9.24969 8.33143 9.25 8V4C9.24969 3.66857 9.1179 3.35081 8.88354 3.11646C8.64919 2.8821 8.33143 2.75031 8 2.75H4Z" fill="#585B7C"/>
<path d="M20 10.75H16C15.2709 10.7493 14.5718 10.4593 14.0563 9.94372C13.5407 9.42816 13.2507 8.72912 13.25 8V4C13.2507 3.27088 13.5407 2.57184 14.0563 2.05628C14.5718 1.54071 15.2709 1.25074 16 1.25H20C20.7291 1.25074 21.4282 1.54071 21.9437 2.05628C22.4593 2.57184 22.7493 3.27088 22.75 4V8C22.7493 8.72912 22.4593 9.42816 21.9437 9.94372C21.4282 10.4593 20.7291 10.7493 20 10.75ZM16 2.75C15.6686 2.75031 15.3508 2.8821 15.1165 3.11646C14.8821 3.35081 14.7503 3.66857 14.75 4V8C14.7503 8.33143 14.8821 8.64919 15.1165 8.88354C15.3508 9.1179 15.6686 9.24969 16 9.25H20C20.3314 9.24969 20.6492 9.1179 20.8835 8.88354C21.1179 8.64919 21.2497 8.33143 21.25 8V4C21.2497 3.66857 21.1179 3.35081 20.8835 3.11646C20.6492 2.8821 20.3314 2.75031 20 2.75H16Z" fill="#585B7C"/>
<path d="M8 22.75H4C3.27088 22.7493 2.57184 22.4593 2.05628 21.9437C1.54071 21.4282 1.25074 20.7291 1.25 20V16C1.25074 15.2709 1.54071 14.5718 2.05628 14.0563C2.57184 13.5407 3.27088 13.2507 4 13.25H8C8.72912 13.2507 9.42816 13.5407 9.94372 14.0563C10.4593 14.5718 10.7493 15.2709 10.75 16V20C10.7493 20.7291 10.4593 21.4282 9.94372 21.9437C9.42816 22.4593 8.72912 22.7493 8 22.75ZM4 14.75C3.66857 14.7503 3.35081 14.8821 3.11646 15.1165C2.8821 15.3508 2.75031 15.6686 2.75 16V20C2.75031 20.3314 2.8821 20.6492 3.11646 20.8835C3.35081 21.1179 3.66857 21.2497 4 21.25H8C8.33143 21.2497 8.64919 21.1179 8.88354 20.8835C9.1179 20.6492 9.24969 20.3314 9.25 20V16C9.24969 15.6686 9.1179 15.3508 8.88354 15.1165C8.64919 14.8821 8.33143 14.7503 8 14.75H4Z" fill="#585B7C"/>
<path d="M18.0002 23.335C17.7705 23.3355 17.5428 23.2905 17.3305 23.2027C17.1181 23.1149 16.9253 22.9859 16.7629 22.8233L13.177 19.2373C12.8492 18.909 12.665 18.464 12.665 18C12.665 17.536 12.8492 17.091 13.177 16.7627L16.7629 13.1768C17.0913 12.8489 17.5363 12.6648 18.0002 12.6648C18.4642 12.6648 18.9092 12.8489 19.2375 13.1768L22.8235 16.7627C23.1513 17.091 23.3354 17.536 23.3354 18C23.3354 18.464 23.1513 18.909 22.8235 19.2373L19.2375 22.8232C19.0752 22.9859 18.8823 23.1149 18.67 23.2027C18.4577 23.2905 18.23 23.3355 18.0002 23.335ZM18.0002 14.1641C17.9674 14.164 17.9349 14.1704 17.9045 14.183C17.8742 14.1956 17.8466 14.2141 17.8235 14.2373L14.2375 17.8232C14.2143 17.8464 14.1959 17.874 14.1833 17.9043C14.1708 17.9347 14.1643 17.9672 14.1643 18C14.1643 18.0328 14.1708 18.0653 14.1833 18.0957C14.1959 18.126 14.2143 18.1535 14.2375 18.1768L17.8235 21.7627C17.8467 21.7859 17.8742 21.8043 17.9046 21.8169C17.9349 21.8295 17.9674 21.8359 18.0002 21.8359C18.0331 21.8359 18.0656 21.8295 18.0959 21.8169C18.1262 21.8043 18.1538 21.7859 18.177 21.7627L21.7629 18.1768C21.7862 18.1535 21.8046 18.126 21.8171 18.0957C21.8297 18.0653 21.8362 18.0328 21.8362 18C21.8362 17.9672 21.8297 17.9347 21.8171 17.9043C21.8046 17.874 21.7862 17.8464 21.7629 17.8232L18.177 14.2373C18.1538 14.214 18.1263 14.1955 18.096 14.183C18.0656 14.1704 18.0331 14.164 18.0002 14.1641Z" fill="#585B7C"/>
</svg>
