<svg width="22" height="23" viewBox="0 0 22 23" fill="none" xmlns="http://www.w3.org/2000/svg">
<path d="M16.1514 9.75964H11.3389C10.963 9.75964 10.6514 9.44798 10.6514 9.07214C10.6514 8.69631 10.963 8.38464 11.3389 8.38464H16.1514C16.5272 8.38464 16.8389 8.69631 16.8389 9.07214C16.8389 9.44798 16.5364 9.75964 16.1514 9.75964Z" fill="#0F2F2C"/>
<path d="M6.52603 10.4564C6.35186 10.4564 6.1777 10.3922 6.0402 10.2547L5.3527 9.56716C5.08686 9.30133 5.08686 8.86133 5.3527 8.59549C5.61853 8.32966 6.05853 8.32966 6.32436 8.59549L6.52603 8.79716L8.1027 7.22049C8.36853 6.95466 8.80853 6.95466 9.07436 7.22049C9.34022 7.48633 9.34022 7.92633 9.07436 8.19216L7.01186 10.2547C6.88353 10.383 6.70936 10.4564 6.52603 10.4564Z" fill="#0F2F2C"/>
<path d="M16.1514 16.1763H11.3389C10.963 16.1763 10.6514 15.8646 10.6514 15.4888C10.6514 15.1129 10.963 14.8013 11.3389 14.8013H16.1514C16.5272 14.8013 16.8389 15.1129 16.8389 15.4888C16.8389 15.8646 16.5364 16.1763 16.1514 16.1763Z" fill="#0F2F2C"/>
<path d="M6.52603 16.873C6.35186 16.873 6.1777 16.8088 6.0402 16.6713L5.3527 15.9838C5.08686 15.718 5.08686 15.278 5.3527 15.0121C5.61853 14.7463 6.05853 14.7463 6.32436 15.0121L6.52603 15.2138L8.1027 13.6371C8.36853 13.3713 8.80853 13.3713 9.07436 13.6371C9.34022 13.903 9.34022 14.343 9.07436 14.6088L7.01186 16.6713C6.88353 16.7996 6.70936 16.873 6.52603 16.873Z" fill="#0F2F2C"/>
<path d="M13.7497 21.7954H8.24967C3.27217 21.7954 1.14551 19.6687 1.14551 14.6912V9.1912C1.14551 4.2137 3.27217 2.08704 8.24967 2.08704H13.7497C18.7272 2.08704 20.8538 4.2137 20.8538 9.1912V14.6912C20.8538 19.6687 18.7272 21.7954 13.7497 21.7954ZM8.24967 3.46204C4.02384 3.46204 2.52051 4.96537 2.52051 9.1912V14.6912C2.52051 18.917 4.02384 20.4204 8.24967 20.4204H13.7497C17.9755 20.4204 19.4788 18.917 19.4788 14.6912V9.1912C19.4788 4.96537 17.9755 3.46204 13.7497 3.46204H8.24967Z" fill="#0F2F2C"/>
</svg>
