<svg width="199" height="44" viewBox="0 0 199 44" fill="none" xmlns="http://www.w3.org/2000/svg">
<path d="M43.4637 21.7319C43.4637 33.7381 33.738 43.4637 21.7319 43.4637C16.869 43.4637 12.3751 41.8707 8.73635 39.1542L11.4696 36.421C11.8217 36.0689 12.3751 36.0186 12.7943 36.2869C15.4605 37.9805 18.6297 38.953 22.0169 38.953C31.5917 38.953 39.3387 31.206 39.3387 21.6313C39.3387 21.2791 39.3219 20.9102 39.3052 20.5581C39.2716 20.0047 38.8021 19.5687 38.2488 19.5687H35.2304C34.6268 19.5687 34.1237 20.0886 34.174 20.709C34.2076 21.0444 34.2076 21.3797 34.2076 21.7319C34.2076 28.5231 28.7075 34.0231 21.9163 34.0231C19.6023 34.0231 17.4392 33.3859 15.5946 32.2792C13.9681 31.3066 12.5763 29.9484 11.5702 28.3554C10.3461 26.4438 9.64184 24.1633 9.64184 21.7319C9.64184 20.9941 9.70891 20.2898 9.82629 19.5855C10.8492 13.8172 15.8797 9.44062 21.9331 9.44062C23.8279 9.44062 25.6389 9.8766 27.2487 10.6479C27.9026 10.9665 28.0536 11.8385 27.5505 12.3416L24.5154 15.3934L20.3401 19.5855L16.148 23.7776C15.8126 24.113 15.7455 24.6328 15.9803 25.0352C16.6678 26.2593 17.7074 27.2654 18.9818 27.8691C19.3843 28.0703 19.8706 27.9865 20.1892 27.6679L28.2715 19.5687L28.3889 19.4514L32.4636 15.3599L35.5323 12.2912C35.9012 11.9056 35.9515 11.3019 35.6161 10.8827C34.6436 9.65861 33.5033 8.55189 32.2457 7.62963C29.3783 5.53358 25.8569 4.29272 22.0337 4.29272C13.1632 4.29272 5.85217 10.9665 4.8293 19.552C4.74546 20.2227 4.71193 20.9102 4.71193 21.6145C4.71193 25.1526 5.76834 28.4392 7.57933 31.1725C7.84762 31.5917 7.79731 32.1451 7.44518 32.4972L4.79577 35.1466C4.76223 35.1801 4.74546 35.2137 4.71193 35.2472C1.76068 31.5414 0 26.8462 0 21.7319C0 9.72568 9.72568 0 21.7319 0C33.738 0 43.4637 9.72568 43.4637 21.7319Z" fill="#34FF67"/>
<path d="M57.1895 26.9928V12.6006H67.4881V14.6751H59.5233V18.6946H67.1547V20.8062H59.5233V24.8997H67.4881V26.9928H57.1895Z" fill="#34FF67"/>
<path d="M73.9158 25.2333C75.8051 25.2333 76.8424 24.3998 76.8424 22.6216V20.7137C76.8424 18.9356 75.8051 18.102 73.9158 18.102C71.8598 18.102 71.0077 19.0467 71.0077 21.6954C71.0077 24.3442 71.8598 25.2333 73.9158 25.2333ZM68.6924 21.6584C68.6924 18.2687 70.3224 16.1016 73.3231 16.1016C75.1754 16.1016 76.3979 16.824 76.9165 18.0835H77.0091V16.3238H79.1392V30.716H76.8424V25.3444H76.7683C76.3052 26.3076 75.1013 27.2152 73.249 27.2152C70.2483 27.1967 68.6924 25.0295 68.6924 21.6584Z" fill="#34FF67"/>
<path d="M81.3428 22.8988V16.3047H83.6581V22.4913C83.6581 24.3992 84.3805 25.1956 86.2328 25.1956C88.0851 25.1956 89.0297 24.4177 89.0297 22.3246V16.3047H91.3451V26.9738H89.1964V24.8437H89.1038C88.5852 26.0662 87.4553 27.1776 85.3622 27.1776C82.5838 27.1961 81.3428 25.3438 81.3428 22.8988Z" fill="#34FF67"/>
<path d="M93.4941 26.9928V16.2495H95.8095V26.9928H93.4941ZM93.4941 14.9529L93.4756 12.582H95.7909V14.9529H93.4941Z" fill="#34FF67"/>
<path d="M103.089 25.2333C105.126 25.2333 105.997 24.2886 105.997 21.6769C105.997 19.0652 105.163 18.0835 103.089 18.0835C101.199 18.0835 100.162 18.917 100.162 20.6952V22.603C100.162 24.3812 101.199 25.2333 103.089 25.2333ZM97.8652 30.6975V16.3053H99.9768V18.0649H100.088C100.588 16.8239 101.811 16.083 103.644 16.083C106.645 16.083 108.312 18.2502 108.312 21.6398C108.312 25.0295 106.701 27.1782 103.793 27.1782C101.885 27.1782 100.699 26.2891 100.236 25.3074H100.162V30.679H97.8652V30.6975Z" fill="#34FF67"/>
<path d="M114.333 26.9928V12.6006H117.63L120.909 20.4913L122.168 23.9365H122.353L123.594 20.4913L126.817 12.6006H130.096V26.9928H127.799V18.4723L127.892 16.0829H127.744L126.836 18.4723L123.613 26.1222H120.816L117.574 18.4723L116.722 16.0829H116.519L116.648 18.4723V26.9928H114.333Z" fill="#34FF67"/>
<path d="M136.116 25.363C137.616 25.363 139.265 24.7702 139.265 22.6216V22.4364L135.875 22.955C134.653 23.1217 134.227 23.3995 134.227 24.196C134.227 25.011 134.764 25.363 136.116 25.363ZM131.967 24.3442C131.967 22.5845 133.263 21.6584 135.523 21.3435L139.265 20.7878V20.2136C139.265 18.6207 138.542 18.1576 136.857 18.1576C135.171 18.1576 134.486 18.6948 134.486 20.121V20.4359H132.245V20.2136C132.245 17.8242 134.115 16.1016 136.968 16.1016C139.82 16.1016 141.45 17.8983 141.45 20.51V26.993H139.302V25.3259H139.191C138.561 26.3447 137.338 27.2152 135.319 27.2152C133.449 27.1967 131.967 26.215 131.967 24.3442Z" fill="#34FF67"/>
<path d="M143.691 26.993V16.3239H145.822V18.3243H145.914C146.414 17.1759 147.544 16.1201 149.637 16.1201C152.416 16.1201 153.657 17.8798 153.657 20.3063V27.0115H151.341V20.8249C151.341 18.9171 150.749 18.1206 148.785 18.1206C146.822 18.1206 146.044 18.843 146.044 20.8434V27.0115H143.691V26.993Z" fill="#34FF67"/>
<path d="M159.491 25.363C160.991 25.363 162.64 24.7702 162.64 22.6216V22.4364L159.25 22.955C158.028 23.1217 157.602 23.3995 157.602 24.196C157.602 25.011 158.139 25.363 159.491 25.363ZM155.342 24.3442C155.342 22.5845 156.638 21.6584 158.898 21.3435L162.64 20.7878V20.2136C162.64 18.6207 161.917 18.1576 160.232 18.1576C158.546 18.1576 157.861 18.6948 157.861 20.121V20.4359H155.62V20.2136C155.62 17.8242 157.49 16.1016 160.343 16.1016C163.195 16.1016 164.825 17.8983 164.825 20.51V26.993H162.677V25.3259H162.566C161.936 26.3447 160.713 27.2152 158.694 27.2152C156.824 27.1967 155.342 26.215 155.342 24.3442Z" fill="#34FF67"/>
<path d="M171.845 24.0108C173.587 24.0108 174.754 23.1773 174.754 21.362V20.6952C174.754 18.917 173.587 18.0835 171.808 18.0835C169.808 18.0835 168.937 18.8615 168.937 21.0472C168.937 23.2328 169.826 23.9923 171.845 24.0108ZM166.604 21.0472C166.604 18.0465 168.252 16.1016 171.271 16.1016C172.994 16.1016 174.328 16.824 174.828 18.0835H174.92V16.3238H177.05V26.2335C177.05 29.4009 175.198 30.8827 172.086 30.8827C168.974 30.8827 167.159 29.438 167.159 26.8633H169.456C169.456 28.3266 169.993 28.8267 172.142 28.8267C174.29 28.8267 174.735 28.234 174.735 26.2521V24.1219H174.642C174.142 25.1592 172.901 26.0113 171.16 26.0113C168.234 25.9742 166.604 24.0478 166.604 21.0472Z" fill="#34FF67"/>
<path d="M180.978 20.6582H186.627C186.72 18.8244 185.719 18.065 183.904 18.065C181.867 18.0465 181.089 18.9911 180.978 20.6582ZM178.773 21.6399C178.773 18.3243 180.755 16.1016 183.923 16.1016C186.794 16.1016 188.813 17.8242 188.813 20.7508C188.813 21.3065 188.739 21.8807 188.683 22.2141H180.922C181.015 24.159 181.719 25.1592 183.941 25.1592C185.719 25.1592 186.405 24.5665 186.405 23.5848V23.4181H188.702V23.6033C188.702 25.789 186.794 27.2152 183.904 27.2152C180.44 27.1967 178.773 24.974 178.773 21.6399Z" fill="#34FF67"/>
<path d="M190.684 26.993V16.2497H192.814V17.9538H192.925C193.351 16.9721 194.333 16.1016 195.907 16.1016C198.148 16.1016 199 17.7316 199 19.732V20.4359H196.685V20.0099C196.685 18.6021 196.277 18.0835 194.925 18.0835C193.573 18.0835 193.017 18.6207 193.017 20.0284V26.993H190.684Z" fill="#34FF67"/>
</svg>
