<svg width="21" height="22" viewBox="0 0 21 22" fill="none" xmlns="http://www.w3.org/2000/svg">
<path d="M13.1423 3.71387H7.99944C5.39581 3.71387 3.28516 5.82452 3.28516 8.42815V13.571C3.28516 16.1746 5.39581 18.2853 7.99944 18.2853H13.1423C15.7459 18.2853 17.8566 16.1746 17.8566 13.571V8.42815C17.8566 5.82452 15.7459 3.71387 13.1423 3.71387Z" stroke="#34FF67" stroke-width="1.5" stroke-linecap="round" stroke-linejoin="round"/>
<path d="M10.5713 14.0909C12.2784 14.0909 13.6622 12.7071 13.6622 11C13.6622 9.293 12.2784 7.90918 10.5713 7.90918C8.86429 7.90918 7.48047 9.293 7.48047 11C7.48047 12.7071 8.86429 14.0909 10.5713 14.0909Z" stroke="#34FF67" stroke-width="1.5" stroke-linecap="round" stroke-linejoin="round"/>
<path d="M14.7657 7.68759C15.2533 7.68759 15.6485 7.29232 15.6485 6.80473C15.6485 6.31714 15.2533 5.92188 14.7657 5.92188C14.2781 5.92188 13.8828 6.31714 13.8828 6.80473C13.8828 7.29232 14.2781 7.68759 14.7657 7.68759Z" fill="#34FF67"/>
</svg>
