<svg width="22" height="22" viewBox="0 0 22 22" fill="none" xmlns="http://www.w3.org/2000/svg">
<g clip-path="url(#clip0_2218_3480)">
<path d="M20.2191 5.6646C20.2078 5.07063 20.197 4.50951 20.197 3.96668C20.197 3.5414 19.8524 3.19662 19.427 3.19662C16.1337 3.19662 13.6263 2.25017 11.5363 0.218041C11.2373 -0.0727318 10.7615 -0.0726292 10.4626 0.218041C8.37277 2.25017 5.86577 3.19662 2.5727 3.19662C2.14743 3.19662 1.80265 3.5414 1.80265 3.96668C1.80265 4.50962 1.79197 5.07094 1.78057 5.66501C1.67502 11.1926 1.53046 18.7628 10.7472 21.9576C10.8289 21.9859 10.9142 22.0001 10.9994 22.0001C11.0846 22.0001 11.1699 21.9859 11.2515 21.9576C20.469 18.7627 20.3247 11.1923 20.2191 5.6646ZM10.9995 20.4128C3.0949 17.5413 3.21442 11.251 3.32048 5.69438C3.32684 5.36089 3.33301 5.03767 3.33732 4.72082C6.42165 4.59063 8.88809 3.65598 10.9995 1.81668C13.1111 3.65598 15.5779 4.59073 18.6625 4.72082C18.6668 5.03757 18.6729 5.36058 18.6793 5.69386C18.7853 11.2507 18.9047 17.5412 10.9995 20.4128Z" fill="#0F2F2C"/>
<path d="M13.6514 8.32499L9.9347 12.0415L8.34869 10.4555C8.04796 10.1548 7.56036 10.1548 7.25973 10.4555C6.959 10.7563 6.959 11.2438 7.25973 11.5445L9.39022 13.675C9.54053 13.8253 9.73767 13.9005 9.9347 13.9005C10.1317 13.9005 10.3289 13.8253 10.4792 13.675L14.7403 9.41405C15.0411 9.11332 15.0411 8.62572 14.7404 8.32509C14.4397 8.02436 13.9521 8.02425 13.6514 8.32499Z" fill="#0F2F2C"/>
</g>
<defs>
<clipPath id="clip0_2218_3480">
<rect width="22" height="22" fill="white"/>
</clipPath>
</defs>
</svg>
