<svg width="48" height="48" viewBox="0 0 48 48" fill="none" xmlns="http://www.w3.org/2000/svg">
<path d="M47.9999 16.2711C47.9999 12.7358 46.6232 9.41209 44.1233 6.91225C41.6235 4.41241 38.2998 3.03564 34.7645 3.03564C31.2292 3.03564 27.9055 4.41241 25.4057 6.91225L23.9982 8.31967L22.588 6.90953C17.4275 1.74897 9.03081 1.74907 3.87035 6.90953C-1.29012 12.07 -1.29012 20.4667 3.87035 25.6272L5.28049 27.0373L5.2353 27.0825C4.41121 27.9065 3.95744 29.0021 3.95744 30.1674C3.95744 31.3326 4.41121 32.4282 5.23652 33.2535C6.06052 34.0775 7.15612 34.5313 8.32138 34.5313C8.52604 34.5313 8.72855 34.5172 8.92787 34.4897C9.08875 35.3111 9.48664 36.0947 10.1216 36.7298L10.1333 36.7414C10.956 37.5589 12.0474 38.009 13.2078 38.009C13.4125 38.009 13.615 37.9949 13.8143 37.9674C13.9752 38.7887 14.3731 39.5724 15.008 40.2075L15.0185 40.2178C15.8414 41.0361 16.9332 41.4866 18.0942 41.4866C18.298 41.4866 18.4996 41.4726 18.6981 41.4453C18.8628 42.2886 19.2737 43.0643 19.8958 43.6863C20.7198 44.5104 21.8154 44.9642 22.9806 44.9642C24.1459 44.9642 25.2415 44.5104 26.0655 43.6864L27.0836 42.6684C27.5466 42.2053 27.8835 41.6632 28.0944 41.0851C28.6684 41.3467 29.2879 41.4775 29.9075 41.4775C31.0249 41.4774 32.1428 41.0519 32.9938 40.2009C33.629 39.5657 34.027 38.7818 34.1878 37.9602C34.387 37.9877 34.5896 38.0017 34.7942 38.0017H34.7944C35.9599 38.0017 37.0557 37.5478 37.8802 36.7234C38.5154 36.0881 38.9135 35.3042 39.0742 34.4827C39.2735 34.5101 39.476 34.5242 39.6806 34.5242H39.6807C40.8462 34.5242 41.9421 34.0703 42.7662 33.2462L42.8025 33.2094C43.6037 32.3896 44.0444 31.309 44.0445 30.1607C44.0445 28.9953 43.5906 27.8996 42.7665 27.0756L42.7221 27.0311L44.1232 25.6301C46.6232 23.1301 47.9999 19.8064 47.9999 16.2711ZM27.3945 8.90104C29.3631 6.93241 31.9805 5.84824 34.7645 5.84824C37.5485 5.84824 40.166 6.93241 42.1346 8.90104C44.1033 10.8697 45.1874 13.4871 45.1874 16.2711C45.1874 19.0551 44.1033 21.6725 42.1346 23.641L40.7271 25.0485L28.6391 12.9606L23.8917 17.7081C23.5375 18.0623 23.0666 18.2573 22.5656 18.2573C22.0647 18.2573 21.5938 18.0622 21.2396 17.7081C20.8854 17.3539 20.6903 16.883 20.6903 16.3821C20.6903 15.8812 20.8854 15.4102 21.2396 15.0559L27.3945 8.90104ZM9.41754 31.2648C9.12475 31.5576 8.73549 31.7188 8.32147 31.7188C7.90746 31.7188 7.51819 31.5576 7.22409 31.2635C6.9313 30.9708 6.77004 30.5815 6.77004 30.1675C6.77004 29.7535 6.9313 29.3642 7.22409 29.0714L10.3554 25.9401C10.6481 25.6473 11.0374 25.4861 11.4514 25.4861C11.8654 25.4861 12.2547 25.6473 12.5488 25.9414C13.1474 26.54 13.1531 27.5106 12.5658 28.1162C12.5601 28.1219 12.5543 28.1275 12.5486 28.1332L9.41754 31.2648ZM14.3039 34.7424C14.0111 35.0351 13.6219 35.1964 13.2079 35.1964C12.7938 35.1964 12.4046 35.0351 12.1118 34.7424L12.1059 34.7364C11.5134 34.1389 11.5078 33.1753 12.089 32.5708L14.5377 30.1222C14.5431 30.1168 14.5484 30.1113 14.5537 30.1059C14.8445 29.8232 15.2271 29.6679 15.6335 29.6679C16.0475 29.6679 16.4368 29.8291 16.7309 30.1231C17.3298 30.722 17.3351 31.6933 16.747 32.299C16.7415 32.3043 16.7361 32.3096 16.7307 32.3151L14.3039 34.7424ZM19.1903 38.2199C18.8975 38.5127 18.5083 38.674 18.0942 38.674C17.6802 38.674 17.2909 38.5127 16.9982 38.2199L16.9926 38.2144C16.3994 37.6166 16.3941 36.6521 16.9762 36.0476L18.7197 34.3042C18.7251 34.2988 18.7304 34.2934 18.7358 34.2879C19.0266 34.0054 19.4091 33.85 19.8155 33.85C20.2295 33.85 20.6188 34.0113 20.9115 34.3041L20.9177 34.3102C21.5121 34.9098 21.5156 35.8781 20.928 36.482C20.9229 36.4871 20.9177 36.4922 20.9126 36.4972L19.1903 38.2199ZM25.0949 40.6795L24.0768 41.6975C23.784 41.9903 23.3948 42.1516 22.9807 42.1516C22.5667 42.1516 22.1775 41.9903 21.8834 41.6963C21.5906 41.4035 21.4293 41.0143 21.4293 40.6002C21.4293 40.1966 21.5825 39.8167 21.8614 39.5266L22.9016 38.4864C22.907 38.4809 22.9123 38.4755 22.9176 38.4701C23.2085 38.1874 23.591 38.0321 23.9974 38.0321C24.4114 38.0321 24.8007 38.1933 25.0934 38.4861L25.0993 38.492C25.6992 39.0967 25.6976 40.0766 25.0949 40.6795ZM35.4531 28.1258L33.4642 30.1146L35.9058 32.5563C36.4959 33.162 36.4911 34.1347 35.8911 34.7348C35.5981 35.0277 35.2087 35.189 34.7944 35.189C34.3801 35.189 33.9907 35.0276 33.6977 34.7346L31.2716 32.3084L29.2828 34.2972L31.0154 36.0299C31.6094 36.6352 31.6059 37.611 31.0042 38.2127C30.3996 38.8173 29.4161 38.8172 28.8115 38.2127L27.089 36.4902L27.0822 36.497L27.072 36.487C26.291 35.7108 25.2679 35.266 24.1735 35.2228C24.1306 34.1659 23.7067 33.1216 22.9014 32.3164L22.89 32.305C22.1088 31.5289 21.0858 31.084 19.9912 31.0409C19.9482 29.9837 19.524 28.939 18.7182 28.1332C17.9358 27.3508 16.9085 26.9022 15.8093 26.8589C15.7662 25.8018 15.342 24.7571 14.5361 23.9513C13.7121 23.1273 12.6165 22.6735 11.4512 22.6735C10.2859 22.6735 9.19038 23.1273 8.36638 23.9513L7.269 25.0486L5.85885 23.6385C1.79502 19.5747 1.79502 12.9622 5.85885 8.89832C9.92268 4.83449 16.535 4.8344 20.5989 8.89832L22.0091 10.3086L19.2505 13.0672C17.4227 14.895 17.4227 17.869 19.2505 19.6968C20.1359 20.5822 21.3131 21.0699 22.5653 21.0699C23.8175 21.0699 24.9947 20.5823 25.8801 19.6968L28.6387 16.9382L40.7267 29.0261L40.7331 29.0197L40.7776 29.0643C41.0705 29.3571 41.2318 29.7464 41.2318 30.1605C41.2318 30.5746 41.0705 30.964 40.7776 31.2569L40.7707 31.2638C40.4785 31.5527 40.0917 31.7115 39.6806 31.7115C39.2663 31.7115 38.8769 31.5501 38.5839 31.2572L35.4531 28.1258Z" fill="#0F2F2C"/>
</svg>
