<svg width="48" height="48" viewBox="0 0 48 48" fill="none" xmlns="http://www.w3.org/2000/svg">
<path d="M16 29C17.1046 29 18 28.1046 18 27C18 25.8954 17.1046 25 16 25C14.8954 25 14 25.8954 14 27C14 28.1046 14.8954 29 16 29Z" fill="#34FF67"/>
<path d="M16 37C17.1046 37 18 36.1046 18 35C18 33.8954 17.1046 33 16 33C14.8954 33 14 33.8954 14 35C14 36.1046 14.8954 37 16 37Z" fill="#34FF67"/>
<path d="M24 29C25.1046 29 26 28.1046 26 27C26 25.8954 25.1046 25 24 25C22.8954 25 22 25.8954 22 27C22 28.1046 22.8954 29 24 29Z" fill="#34FF67"/>
<path d="M24 37C25.1046 37 26 36.1046 26 35C26 33.8954 25.1046 33 24 33C22.8954 33 22 33.8954 22 35C22 36.1046 22.8954 37 24 37Z" fill="#34FF67"/>
<path d="M32 29C33.1046 29 34 28.1046 34 27C34 25.8954 33.1046 25 32 25C30.8954 25 30 25.8954 30 27C30 28.1046 30.8954 29 32 29Z" fill="#34FF67"/>
<path d="M32 37C33.1046 37 34 36.1046 34 35C34 33.8954 33.1046 33 32 33C30.8954 33 30 33.8954 30 35C30 36.1046 30.8954 37 32 37Z" fill="#34FF67"/>
<path fill-rule="evenodd" clip-rule="evenodd" d="M45.5 13V39C45.5 40.99 44.71 42.896 43.304 44.304C41.896 45.71 39.99 46.5 38 46.5H10C8.01 46.5 6.104 45.71 4.696 44.304C3.29 42.896 2.5 40.99 2.5 39V13C2.5 11.01 3.29 9.104 4.696 7.696C6.104 6.29 8.01 5.5 10 5.5H38C39.99 5.5 41.896 6.29 43.304 7.696C44.71 9.104 45.5 11.01 45.5 13ZM42.5 13C42.5 11.806 42.026 10.662 41.182 9.818C40.338 8.974 39.194 8.5 38 8.5H10C8.806 8.5 7.662 8.974 6.818 9.818C5.974 10.662 5.5 11.806 5.5 13V39C5.5 40.194 5.974 41.338 6.818 42.182C7.662 43.026 8.806 43.5 10 43.5H38C39.194 43.5 40.338 43.026 41.182 42.182C42.026 41.338 42.5 40.194 42.5 39V13Z" fill="#34FF67"/>
<path fill-rule="evenodd" clip-rule="evenodd" d="M44 16.5C44.828 16.5 45.5 17.172 45.5 18C45.5 18.828 44.828 19.5 44 19.5H4C3.172 19.5 2.5 18.828 2.5 18C2.5 17.172 3.172 16.5 4 16.5H44Z" fill="#34FF67"/>
<path fill-rule="evenodd" clip-rule="evenodd" d="M30.5 3C30.5 2.172 31.172 1.5 32 1.5C32.828 1.5 33.5 2.172 33.5 3V11C33.5 11.828 32.828 12.5 32 12.5C31.172 12.5 30.5 11.828 30.5 11V3Z" fill="#34FF67"/>
<path fill-rule="evenodd" clip-rule="evenodd" d="M14.5 3C14.5 2.172 15.172 1.5 16 1.5C16.828 1.5 17.5 2.172 17.5 3V11C17.5 11.828 16.828 12.5 16 12.5C15.172 12.5 14.5 11.828 14.5 11V3Z" fill="#34FF67"/>
</svg>
