<svg width="48" height="48" viewBox="0 0 48 48" fill="none" xmlns="http://www.w3.org/2000/svg">
<g clip-path="url(#clip0_2218_3596)">
<path d="M32.6661 7.98046H27.9526C28.1194 5.90849 27.4137 3.77886 25.8323 2.1973C22.9708 -0.663949 18.3151 -0.663949 15.4537 2.1973L13.9909 3.66008L12.5281 2.1973C9.66666 -0.664137 5.01084 -0.664043 2.1495 2.19739C0.763406 3.58339 0 5.42643 0 7.38664C0 9.34686 0.763312 11.1898 2.1495 12.5759L5.69616 16.1226C4.52306 18.3287 3.90666 20.7919 3.90666 23.3144C3.90666 31.7696 10.7855 38.6483 19.2407 38.6483H21.5323L31.5255 47.9488V38.6483H32.6661C41.1213 38.6483 48 31.7695 48 23.3144C48 14.8593 41.1212 7.98046 32.6661 7.98046ZM4.13991 4.18771C5.02191 3.30571 6.18019 2.8648 7.33875 2.8648C8.49703 2.8648 9.65578 3.30589 10.5376 4.18771L13.9908 7.64089L17.444 4.18771C19.2079 2.42399 22.0777 2.42389 23.8417 4.1878C24.6962 5.04224 25.1667 6.17821 25.1667 7.38664C25.1667 8.59499 24.6962 9.73105 23.8417 10.5855L13.9909 20.4365L4.13991 10.5855C2.37609 8.82158 2.37609 5.95161 4.13991 4.18771ZM32.6661 35.8335H28.7106V41.4838L22.6396 35.8335H19.2407C12.3376 35.8335 6.72159 30.2175 6.72159 23.3144C6.72159 21.5482 7.09144 19.8184 7.79991 18.2262L13.991 24.4173L25.8323 12.5759C26.3704 12.0379 26.8071 11.4364 27.1428 10.7953H32.6662C39.5692 10.7953 45.1852 16.4113 45.1852 23.3144C45.1852 30.2175 39.5691 35.8335 32.6661 35.8335Z" fill="#0F2F2C"/>
<path d="M18.2764 22.5139H21.2513V25.3289H18.2764V22.5139Z" fill="#0F2F2C"/>
<path d="M24.8447 22.5139H27.8197V25.3289H24.8447V22.5139Z" fill="#0F2F2C"/>
<path d="M31.4131 22.5139H34.3881V25.3289H31.4131V22.5139Z" fill="#0F2F2C"/>
</g>
<defs>
<clipPath id="clip0_2218_3596">
<rect width="48" height="48" fill="white"/>
</clipPath>
</defs>
</svg>
